<svg xmlns="http://www.w3.org/2000/svg" viewBox="0 0 131.32 177.79"><defs><style>.cls-1{fill:#0fb8bc;}.cls-2{fill:#fff;}.cls-3,.cls-5{fill:#401d96;}.cls-4{fill:#0fcebf;}.cls-5{font-size:19.43px;font-family:Montserrat-Black, Montserrat;font-weight:800;}.cls-6{letter-spacing:-0.01em;}</style></defs><g id="Capa_2" data-name="Capa 2"><g id="OBJECTS"><rect class="cls-1" x="6.06" y="7.07" width="125.26" height="170.72" rx="18.4"/><rect class="cls-2" width="125.26" height="170.72" rx="18.4"/><rect class="cls-3" x="10.1" y="10.1" width="105.06" height="105.06" rx="13.57"/><path class="cls-2" d="M25.1,25.1H39.25V39.25H25.1Zm12,2.14H27.24v9.88h9.88Z"/><rect class="cls-2" x="29.64" y="29.64" width="5.07" height="5.07"/><path class="cls-2" d="M53,53.19H71.85V72.07H53ZM69,56H55.82V69.22H69Z"/><rect class="cls-2" x="59.03" y="59.25" width="6.77" height="6.77"/><path class="cls-2" d="M86,25.1h14.15V39.25H86Zm12,2.14H88.14v9.88H98Z"/><rect class="cls-2" x="90.55" y="29.64" width="5.07" height="5.07"/><path class="cls-2" d="M86,86h14.15v14.15H86Zm12,2.13H88.14V98H98Z"/><rect class="cls-2" x="90.55" y="90.55" width="5.07" height="5.07"/><rect class="cls-2" x="81.39" y="90.77" width="4.69" height="4.69"/><rect class="cls-2" x="76.7" y="86.08" width="4.69" height="4.69"/><rect class="cls-2" x="76.7" y="81.39" width="4.69" height="4.69"/><rect class="cls-2" x="67.32" y="81.39" width="4.69" height="4.69"/><rect class="cls-2" x="72.01" y="76.7" width="4.69" height="4.69"/><rect class="cls-2" x="62.63" y="76.7" width="4.69" height="4.69"/><rect class="cls-2" x="57.94" y="72.01" width="4.69" height="4.69"/><rect class="cls-2" x="48.56" y="67.32" width="4.69" height="4.69"/><rect class="cls-2" x="43.79" y="62.63" width="4.69" height="4.69"/><rect class="cls-2" x="76.7" y="67.32" width="4.69" height="4.69"/><rect class="cls-2" x="76.7" y="57.94" width="4.69" height="4.69"/><rect class="cls-2" x="81.39" y="62.63" width="4.69" height="4.69"/><rect class="cls-2" x="25.1" y="53.25" width="4.69" height="4.69"/><rect class="cls-2" x="29.79" y="53.25" width="4.69" height="4.69"/><rect class="cls-2" x="29.79" y="43.87" width="4.69" height="4.69"/><rect class="cls-2" x="34.49" y="48.56" width="4.69" height="4.69"/><rect class="cls-2" x="57.94" y="39.18" width="4.69" height="4.69"/><rect class="cls-2" x="53.25" y="34.49" width="4.69" height="4.69"/><rect class="cls-2" x="53.25" y="29.8" width="4.69" height="4.69"/><rect class="cls-2" x="43.87" y="29.8" width="4.69" height="4.69"/><rect class="cls-2" x="48.56" y="25.1" width="4.69" height="4.69"/><rect class="cls-2" x="76.7" y="53.25" width="4.69" height="4.69"/><rect class="cls-2" x="81.39" y="53.25" width="4.69" height="4.69"/><rect class="cls-2" x="81.39" y="43.87" width="4.69" height="4.69"/><rect class="cls-2" x="86.08" y="48.56" width="4.69" height="4.69"/><rect class="cls-2" x="90.77" y="43.87" width="4.69" height="4.69"/><rect class="cls-2" x="95.47" y="48.56" width="4.69" height="4.69"/><rect class="cls-2" x="81.39" y="81.39" width="4.69" height="4.69"/><rect class="cls-2" x="86.08" y="76.7" width="4.69" height="4.69"/><rect class="cls-2" x="90.77" y="76.7" width="4.69" height="4.69"/><rect class="cls-2" x="90.77" y="67.32" width="4.69" height="4.69"/><rect class="cls-2" x="95.47" y="72.01" width="4.69" height="4.69"/><rect class="cls-2" x="86.08" y="67.32" width="4.69" height="4.69"/><rect class="cls-2" x="90.77" y="62.63" width="4.69" height="4.69"/><rect class="cls-2" x="95.47" y="62.63" width="4.69" height="4.69"/><rect class="cls-2" x="95.47" y="53.25" width="4.69" height="4.69"/><rect class="cls-2" x="39.18" y="95.47" width="4.69" height="4.69"/><rect class="cls-2" x="34.49" y="90.77" width="4.69" height="4.69"/><rect class="cls-2" x="34.49" y="86.08" width="4.69" height="4.69"/><rect class="cls-2" x="25.1" y="86.08" width="4.69" height="4.69"/><rect class="cls-2" x="29.79" y="81.39" width="4.69" height="4.69"/><rect class="cls-2" x="43.87" y="90.77" width="4.69" height="4.69"/><rect class="cls-2" x="48.56" y="86.08" width="4.69" height="4.69"/><rect class="cls-2" x="53.25" y="86.08" width="4.69" height="4.69"/><rect class="cls-2" x="53.25" y="76.7" width="4.69" height="4.69"/><rect class="cls-2" x="57.94" y="81.39" width="4.69" height="4.69"/><rect class="cls-2" x="57.94" y="95.47" width="4.69" height="4.69"/><rect class="cls-2" x="62.63" y="95.47" width="4.69" height="4.69"/><rect class="cls-2" x="62.63" y="86.08" width="4.69" height="4.69"/><rect class="cls-2" x="67.32" y="90.77" width="4.69" height="4.69"/><rect class="cls-2" x="29.79" y="62.63" width="4.69" height="4.69"/><rect class="cls-2" x="34.49" y="57.94" width="4.69" height="4.69"/><rect class="cls-2" x="39.18" y="57.94" width="4.69" height="4.69"/><rect class="cls-2" x="39.18" y="48.56" width="4.69" height="4.69"/><rect class="cls-2" x="43.87" y="53.25" width="4.69" height="4.69"/><rect class="cls-2" x="34.49" y="67.32" width="4.69" height="4.69"/><rect class="cls-2" x="39.18" y="72.01" width="4.69" height="4.69"/><rect class="cls-2" x="25.1" y="67.32" width="4.69" height="4.69"/><rect class="cls-2" x="29.79" y="72.01" width="4.69" height="4.69"/><rect class="cls-2" x="39.18" y="76.7" width="4.69" height="4.69"/><rect class="cls-2" x="48.56" y="76.7" width="4.69" height="4.69"/><rect class="cls-2" x="43.87" y="81.39" width="4.69" height="4.69"/><rect class="cls-2" x="57.94" y="29.8" width="4.69" height="4.69"/><rect class="cls-2" x="62.63" y="25.1" width="4.69" height="4.69"/><rect class="cls-2" x="67.32" y="25.1" width="4.69" height="4.69"/><rect class="cls-2" x="48.56" y="39.18" width="4.69" height="4.69"/><rect class="cls-2" x="53.25" y="43.87" width="4.69" height="4.69"/><rect class="cls-2" x="39.18" y="39.18" width="4.69" height="4.69"/><rect class="cls-2" x="43.87" y="43.87" width="4.69" height="4.69"/><rect class="cls-2" x="62.63" y="34.49" width="4.69" height="4.69"/><rect class="cls-2" x="67.32" y="39.18" width="4.69" height="4.69"/><rect class="cls-2" x="67.32" y="43.87" width="4.69" height="4.69"/><rect class="cls-2" x="76.7" y="43.87" width="4.69" height="4.69"/><rect class="cls-2" x="72.01" y="48.56" width="4.69" height="4.69"/><rect class="cls-2" x="72.01" y="29.8" width="4.69" height="4.69"/><rect class="cls-2" x="72.01" y="34.49" width="4.69" height="4.69"/><rect class="cls-2" x="81.39" y="34.49" width="4.69" height="4.69"/><rect class="cls-2" x="76.7" y="39.18" width="4.69" height="4.69"/><polygon class="cls-4" points="70.71 120.21 70.71 106.07 54.55 106.07 54.55 120.21 45.17 120.21 62.63 140.23 80.09 120.21 70.71 120.21"/></g><g id="TEXTS"><text class="cls-5" transform="translate(12.58 158.08)">ES<tspan class="cls-6" x="25.84" y="0">C</tspan><tspan x="40.1" y="0">ANEA</tspan></text></g></g></svg>